<svg width="60" height="60" viewBox="0 0 60 60" fill="none" xmlns="http://www.w3.org/2000/svg">
<g clip-path="url(#clip0_1140_996)">
<path d="M50.7841 18C44.1601 6.52801 29.4721 2.59201 18.0001 9.21601C14.3521 11.328 11.3281 14.352 9.21606 18L10.6561 43.92L50.7841 18Z" fill="url(#paint0_linear_1140_996)"/>
<path d="M19.632 36L9.21601 18C2.59201 29.472 6.52801 44.16 18 50.784C21.648 52.896 25.776 54 30 54L53.52 30L19.632 36Z" fill="url(#paint1_linear_1140_996)"/>
<path d="M40.416 36L30 54C43.248 54 54 43.248 54 30C54 25.776 52.896 21.648 50.784 18H30L40.416 36Z" fill="url(#paint2_linear_1140_996)"/>
<path d="M30 42C36.624 42 42 36.624 42 30C42 23.376 36.624 18 30 18C23.376 18 18 23.376 18 30C18 36.624 23.376 42 30 42Z" fill="white"/>
<path d="M30.0001 39.504C35.2321 39.504 39.5041 35.232 39.5041 30C39.5041 24.768 35.2321 20.496 30.0001 20.496C24.7681 20.496 20.4961 24.768 20.4961 30C20.4961 35.232 24.7681 39.504 30.0001 39.504Z" fill="#1A73E8"/>
</g>
<defs>
<linearGradient id="paint0_linear_1140_996" x1="9.21467" y1="24.9615" x2="50.7827" y2="24.9615" gradientUnits="userSpaceOnUse">
<stop stop-color="#D93025"/>
<stop offset="1" stop-color="#EA4335"/>
</linearGradient>
<linearGradient id="paint1_linear_1140_996" x1="38.8218" y1="48.9118" x2="18.0378" y2="12.9118" gradientUnits="userSpaceOnUse">
<stop stop-color="#1E8E3E"/>
<stop offset="1" stop-color="#34A853"/>
</linearGradient>
<linearGradient id="paint2_linear_1140_996" x1="26.5113" y1="54.0098" x2="47.2953" y2="18.0722" gradientUnits="userSpaceOnUse">
<stop stop-color="#FCC934"/>
<stop offset="1" stop-color="#FBBC04"/>
</linearGradient>
<clipPath id="clip0_1140_996">
<rect width="48" height="48" fill="white" transform="translate(6 6)"/>
</clipPath>
</defs>
</svg>
