<svg width="60" height="60" viewBox="0 0 60 60" fill="none" xmlns="http://www.w3.org/2000/svg">
<path d="M49.2689 15.42C44.9198 9.70663 38.1417 6.14885 31.0116 6.0063C25.4262 5.89576 21.5659 7.56847 19.3841 8.91536C22.3048 7.2252 26.5317 6.26521 30.232 6.31466C39.7534 6.43684 49.9787 12.9037 51.4972 24.5632C53.2398 37.9478 43.8959 49.1157 30.7527 49.1506C16.2918 49.1884 7.49478 36.4147 9.79585 24.9385C9.9093 24.3654 9.85403 23.8068 10.046 23.2658C10.1566 21.2469 10.9187 18.0847 12.5682 14.8557C10.9013 15.7138 8.78058 18.4338 7.73332 20.9531C6.22352 24.5836 5.69116 28.9268 6.17116 33.0577C6.20606 33.3689 6.24097 33.6773 6.2817 33.9857C8.21913 45.3484 18.1099 54 30.0255 54C43.3286 54 54.1154 43.2161 54.1154 29.9101C54.1125 24.4701 52.3089 19.452 49.2689 15.42Z" fill="url(#paint0_radial_1140_1003)"/>
<g opacity="0.67">
<path d="M49.2689 15.42C44.9198 9.70663 38.1417 6.14885 31.0116 6.0063C25.4262 5.89576 21.5659 7.56847 19.3841 8.91536C22.3048 7.2252 26.5317 6.26521 30.232 6.31466C39.7534 6.43684 49.9787 12.9037 51.4972 24.5632C53.2398 37.9478 43.8959 49.1157 30.7527 49.1506C16.2918 49.1884 7.49478 36.4147 9.79585 24.9385C9.9093 24.3654 9.85403 23.8068 10.046 23.2658C10.1566 21.2469 10.9187 18.0847 12.5682 14.8557C10.9013 15.7138 8.78058 18.4338 7.73332 20.9531C6.22352 24.5836 5.69116 28.9268 6.17116 33.0577C6.20606 33.3689 6.24097 33.6773 6.2817 33.9857C8.21913 45.3484 18.1099 54 30.0255 54C43.3286 54 54.1154 43.2161 54.1154 29.9101C54.1125 24.4701 52.3089 19.452 49.2689 15.42Z" fill="url(#paint1_radial_1140_1003)"/>
</g>
<path d="M49.2689 15.42C44.9198 9.70663 38.1417 6.14885 31.0116 6.0063C25.4262 5.89576 21.5659 7.56847 19.3841 8.91536C22.3048 7.2252 26.5317 6.26521 30.232 6.31466C39.7534 6.43684 49.9787 12.9037 51.4972 24.5632C53.2398 37.9478 43.8959 49.1157 30.7527 49.1506C16.2918 49.1884 7.49478 36.4147 9.79585 24.9385C9.9093 24.3654 9.85403 23.8068 10.046 23.2658C10.1566 21.2469 10.9187 18.0847 12.5682 14.8557C10.9013 15.7138 8.78058 18.4338 7.73332 20.9531C6.22352 24.5836 5.69116 28.9268 6.17116 33.0577C6.20606 33.3689 6.24097 33.6773 6.2817 33.9857C8.21913 45.3484 18.1099 54 30.0255 54C43.3286 54 54.1154 43.2161 54.1154 29.9101C54.1125 24.4701 52.3089 19.452 49.2689 15.42Z" fill="url(#paint2_radial_1140_1003)"/>
<path d="M49.2689 15.42C44.9198 9.70663 38.1417 6.14885 31.0116 6.0063C25.4262 5.89576 21.5659 7.56847 19.3841 8.91536C22.3048 7.2252 26.5317 6.26521 30.232 6.31466C39.7534 6.43684 49.9787 12.9037 51.4972 24.5632C53.2398 37.9478 43.8959 49.1157 30.7527 49.1506C16.2918 49.1884 7.49478 36.4147 9.79585 24.9385C9.9093 24.3654 9.85403 23.8068 10.046 23.2658C10.1566 21.2469 10.9187 18.0847 12.5682 14.8557C10.9013 15.7138 8.78058 18.4338 7.73332 20.9531C6.22352 24.5836 5.69116 28.9268 6.17116 33.0577C6.20606 33.3689 6.24097 33.6773 6.2817 33.9857C8.21913 45.3484 18.1099 54 30.0255 54C43.3286 54 54.1154 43.2161 54.1154 29.9101C54.1125 24.4701 52.3089 19.452 49.2689 15.42Z" fill="url(#paint3_radial_1140_1003)"/>
<path d="M49.2689 15.42C44.9198 9.70663 38.1417 6.14885 31.0116 6.0063C25.4262 5.89576 21.5659 7.56847 19.3841 8.91536C22.3048 7.2252 26.5317 6.26521 30.232 6.31466C39.7534 6.43684 49.9787 12.9037 51.4972 24.5632C53.2398 37.9478 43.8959 49.1157 30.7527 49.1506C16.2918 49.1884 7.49478 36.4147 9.79585 24.9385C9.9093 24.3654 9.85403 23.8068 10.046 23.2658C10.1566 21.2469 10.9187 18.0847 12.5682 14.8557C10.9013 15.7138 8.78058 18.4338 7.73332 20.9531C6.22352 24.5836 5.69116 28.9268 6.17116 33.0577C6.20606 33.3689 6.24097 33.6773 6.2817 33.9857C8.21913 45.3484 18.1099 54 30.0255 54C43.3286 54 54.1154 43.2161 54.1154 29.9101C54.1125 24.4701 52.3089 19.452 49.2689 15.42Z" fill="url(#paint4_radial_1140_1003)"/>
<path d="M51.4972 24.5603C51.6892 26.0381 51.7473 27.4926 51.6775 28.9093C52.4746 28.7901 53.2746 28.6853 54.0746 28.5923C53.807 23.6614 52.0615 19.1262 49.2659 15.42C44.9198 9.70663 38.1417 6.14885 31.0116 6.0063C25.4262 5.89576 21.5658 7.56847 19.384 8.91536C22.3047 7.2252 26.5316 6.26521 30.2319 6.31466C39.7533 6.43393 49.9786 12.9037 51.4972 24.5603Z" fill="url(#paint5_linear_1140_1003)"/>
<path d="M52.0822 23.8971C50.7295 11.711 39.8379 6.23328 30.2322 6.31474C26.5319 6.34383 22.305 7.22527 19.3814 8.91544C18.0171 9.75616 17.3073 10.4689 17.2403 10.5387C17.3189 10.4747 17.5487 10.2856 17.9327 10.0209C17.9443 10.0122 17.9589 10.0034 17.9705 9.9947C17.9822 9.98597 17.9938 9.98015 18.0054 9.97143C19.3989 9.01144 20.9698 8.31326 22.6308 7.82745C25.1704 7.08564 27.9195 6.83546 30.5609 6.90237C41.4234 7.52782 49.0888 16.5226 49.3564 26.0964C49.5775 34.0206 43.0757 40.3391 35.582 40.7057C30.1333 40.9704 24.9988 38.3406 22.4883 33.0781C21.9298 31.9057 21.5196 30.7159 21.3072 29.2789C20.1203 21.2673 25.5108 14.4368 30.4562 12.7438C27.7886 10.4194 21.1065 10.5765 16.132 14.2274C12.5509 16.8572 10.2266 20.8571 9.4557 25.628C8.86807 29.2672 9.42079 33.0519 10.8637 36.4293C12.3328 39.8737 14.7211 42.9078 17.7233 45.1449C20.9843 47.571 24.9115 48.9848 28.958 49.2932C29.5544 49.3397 30.1537 49.3601 30.7529 49.3601C46.6684 49.363 53.5745 37.3108 52.0822 23.8971Z" fill="url(#paint6_radial_1140_1003)"/>
<path d="M52.0822 23.8971C50.7295 11.711 39.8379 6.23328 30.2322 6.31474C26.5319 6.34383 22.305 7.22527 19.3814 8.91544C18.0171 9.75616 17.3073 10.4689 17.2403 10.5387C17.3189 10.4747 17.5487 10.2856 17.9327 10.0209C17.9443 10.0122 17.9589 10.0034 17.9705 9.9947C17.9822 9.98597 17.9938 9.98015 18.0054 9.97143C19.3989 9.01144 20.9698 8.31326 22.6308 7.82745C25.1704 7.08564 27.9195 6.83546 30.5609 6.90237C41.4234 7.52782 49.0888 16.5226 49.3564 26.0964C49.5775 34.0206 43.0757 40.3391 35.582 40.7057C30.1333 40.9704 24.9988 38.3406 22.4883 33.0781C21.9298 31.9057 21.5196 30.7159 21.3072 29.2789C20.1203 21.2673 25.5108 14.4368 30.4562 12.7438C27.7886 10.4194 21.1065 10.5765 16.132 14.2274C12.5509 16.8572 10.2266 20.8571 9.4557 25.628C8.86807 29.2672 9.42079 33.0519 10.8637 36.4293C12.3328 39.8737 14.7211 42.9078 17.7233 45.1449C20.9843 47.571 24.9115 48.9848 28.958 49.2932C29.5544 49.3397 30.1537 49.3601 30.7529 49.3601C46.6684 49.363 53.5745 37.3108 52.0822 23.8971Z" fill="url(#paint7_radial_1140_1003)"/>
<path opacity="0.53" d="M52.0822 23.8971C50.7295 11.711 39.8379 6.23328 30.2322 6.31474C26.5319 6.34383 22.305 7.22527 19.3814 8.91544C18.0171 9.75616 17.3073 10.4689 17.2403 10.5387C17.3189 10.4747 17.5487 10.2856 17.9327 10.0209C17.9443 10.0122 17.9589 10.0034 17.9705 9.9947C17.9822 9.98597 17.9938 9.98015 18.0054 9.97143C19.3989 9.01144 20.9698 8.31326 22.6308 7.82745C25.1704 7.08564 27.9195 6.83546 30.5609 6.90237C41.4234 7.52782 49.0888 16.5226 49.3564 26.0964C49.5775 34.0206 43.0757 40.3391 35.582 40.7057C30.1333 40.9704 24.9988 38.3406 22.4883 33.0781C21.9298 31.9057 21.5196 30.7159 21.3072 29.2789C20.1203 21.2673 25.5108 14.4368 30.4562 12.7438C27.7886 10.4194 21.1065 10.5765 16.132 14.2274C12.5509 16.8572 10.2266 20.8571 9.4557 25.628C8.86807 29.2672 9.42079 33.0519 10.8637 36.4293C12.3328 39.8737 14.7211 42.9078 17.7233 45.1449C20.9843 47.571 24.9115 48.9848 28.958 49.2932C29.5544 49.3397 30.1537 49.3601 30.7529 49.3601C46.6684 49.363 53.5745 37.3108 52.0822 23.8971Z" fill="url(#paint8_radial_1140_1003)"/>
<path opacity="0.53" d="M52.0822 23.8971C50.7295 11.711 39.8379 6.23328 30.2322 6.31474C26.5319 6.34383 22.305 7.22527 19.3814 8.91544C18.0171 9.75616 17.3073 10.4689 17.2403 10.5387C17.3189 10.4747 17.5487 10.2856 17.9327 10.0209C17.9443 10.0122 17.9589 10.0034 17.9705 9.9947C17.9822 9.98597 17.9938 9.98015 18.0054 9.97143C19.3989 9.01144 20.9698 8.31326 22.6308 7.82745C25.1704 7.08564 27.9195 6.83546 30.5609 6.90237C41.4234 7.52782 49.0888 16.5226 49.3564 26.0964C49.5775 34.0206 43.0757 40.3391 35.582 40.7057C30.1333 40.9704 24.9988 38.3406 22.4883 33.0781C21.9298 31.9057 21.5196 30.7159 21.3072 29.2789C20.1203 21.2673 25.5108 14.4368 30.4562 12.7438C27.7886 10.4194 21.1065 10.5765 16.132 14.2274C12.5509 16.8572 10.2266 20.8571 9.4557 25.628C8.86807 29.2672 9.42079 33.0519 10.8637 36.4293C12.3328 39.8737 14.7211 42.9078 17.7233 45.1449C20.9843 47.571 24.9115 48.9848 28.958 49.2932C29.5544 49.3397 30.1537 49.3601 30.7529 49.3601C46.6684 49.363 53.5745 37.3108 52.0822 23.8971Z" fill="url(#paint9_radial_1140_1003)"/>
<path d="M35.5817 40.7055C45.8682 40.0801 50.2696 31.5885 50.543 25.5581C50.9765 16.1414 45.3766 5.98881 30.5607 6.90226C27.9193 6.83535 25.1702 7.08553 22.6306 7.82734C20.4052 8.50515 18.8605 9.39241 18.0052 9.97132C17.9936 9.98004 17.9819 9.98586 17.9703 9.99459C17.9557 10.0033 17.9441 10.012 17.9325 10.0208C17.7027 10.1808 17.4757 10.3495 17.2576 10.5269C17.6707 10.2448 22.779 7.2368 29.8771 8.16479C38.3803 9.27896 46.1562 15.8796 46.1562 24.5893C46.1562 31.2918 40.9664 36.406 34.8865 36.0423C25.8568 35.4983 23.5819 26.2621 28.2771 22.2708C27.0117 21.9974 24.6291 22.5326 22.9739 25.0024C21.4873 27.222 21.5717 30.6489 22.4881 33.078C24.9986 38.3405 30.136 41.0343 35.5817 40.7055Z" fill="url(#paint10_radial_1140_1003)"/>
<path d="M49.2689 15.4199C48.6231 14.5734 47.9191 13.7792 47.1744 13.0316C46.578 12.4003 45.9351 11.8156 45.2631 11.2774C45.65 11.6149 46.0224 11.9727 46.3744 12.3509C47.6776 13.756 48.7074 15.417 49.3096 17.2381C50.5663 21.0344 50.4849 25.7878 48.0849 29.5202C45.2253 33.9681 40.5737 36.1645 35.541 36.0568C35.3229 36.0568 35.1047 36.0539 34.8836 36.0394C25.8539 35.4954 23.579 26.2591 28.2742 22.2679C27.0088 21.9944 24.6262 22.5297 22.9681 24.9995C21.4815 27.2191 21.5659 30.646 22.4823 33.075C21.9237 31.9056 21.5135 30.7129 21.3012 29.2758C20.1201 21.2672 25.5106 14.4367 30.456 12.7436C27.7884 10.4193 21.1063 10.5764 16.1318 14.2272C13.2314 16.3567 11.1573 19.3821 10.0635 22.9864C10.2235 20.9646 10.9915 17.9421 12.5653 14.8556C10.9013 15.7138 8.78058 18.4337 7.73332 20.953C6.22352 24.5835 5.69116 28.9267 6.17116 33.0576C6.20606 33.3689 6.24097 33.6772 6.2817 33.9856C8.21913 45.3484 18.1099 53.9999 30.0255 53.9999C43.3286 53.9999 54.1154 43.216 54.1154 29.91C54.1125 24.47 52.3089 19.4519 49.2689 15.4199Z" fill="url(#paint11_linear_1140_1003)"/>
<path d="M49.3124 17.2353C48.7102 15.4171 47.6804 13.756 46.3772 12.3481C44.8412 10.6928 42.9299 9.43318 40.9081 8.45283C39.186 7.61793 37.3882 6.96048 35.5322 6.5503C32.2013 5.82013 28.7104 5.83177 25.5657 6.49503C22.1476 7.21357 19.1425 8.68846 17.2429 10.5328C18.6684 9.66882 20.6552 8.96773 22.072 8.60992C28.6464 6.95175 35.8842 8.74665 40.8209 13.471C41.8129 14.4193 42.703 15.4811 43.4245 16.6535C46.3684 21.4302 46.0892 27.4315 43.7939 30.9719C42.0892 33.6017 38.4383 36.0685 35.0289 36.0424C40.2565 36.3158 45.1292 34.1166 48.0877 29.5173C50.4848 25.785 50.5662 21.0345 49.3124 17.2353Z" fill="url(#paint12_linear_1140_1003)"/>
<path d="M49.3124 17.2353C48.7102 15.4171 47.6804 13.756 46.3772 12.3481C44.8412 10.6928 42.9299 9.43318 40.9081 8.45283C39.186 7.61793 37.3882 6.96048 35.5322 6.5503C32.2013 5.82013 28.7104 5.83177 25.5657 6.49503C22.1476 7.21357 19.1425 8.68846 17.2429 10.5328C18.6684 9.66882 20.6552 8.96773 22.072 8.60992C28.6464 6.95175 35.8842 8.74665 40.8209 13.471C41.8129 14.4193 42.703 15.4811 43.4245 16.6535C46.3684 21.4302 46.0892 27.4315 43.7939 30.9719C42.0892 33.6017 38.4383 36.0685 35.0289 36.0424C40.2565 36.3158 45.1292 34.1166 48.0877 29.5173C50.4848 25.785 50.5662 21.0345 49.3124 17.2353Z" fill="url(#paint13_linear_1140_1003)"/>
<defs>
<radialGradient id="paint0_radial_1140_1003" cx="0" cy="0" r="1" gradientUnits="userSpaceOnUse" gradientTransform="translate(49.0198 15.093) scale(54.5969 54.5969)">
<stop stop-color="#FFF44F"/>
<stop offset="0.2949" stop-color="#FF980E"/>
<stop offset="0.4315" stop-color="#FF5D36"/>
<stop offset="0.5302" stop-color="#FF3750"/>
<stop offset="0.7493" stop-color="#F5156C"/>
<stop offset="0.7648" stop-color="#F1136E"/>
<stop offset="0.8801" stop-color="#DA057A"/>
<stop offset="0.9528" stop-color="#D2007F"/>
</radialGradient>
<radialGradient id="paint1_radial_1140_1003" cx="0" cy="0" r="1" gradientUnits="userSpaceOnUse" gradientTransform="translate(9.98658 17.3515) scale(32.3119)">
<stop stop-color="#B5007F"/>
<stop offset="1" stop-color="#F5156C" stop-opacity="0"/>
</radialGradient>
<radialGradient id="paint2_radial_1140_1003" cx="0" cy="0" r="1" gradientUnits="userSpaceOnUse" gradientTransform="translate(53.687 11.9864) scale(64.1109)">
<stop stop-color="#FFDD00" stop-opacity="0.6"/>
<stop offset="0.0836672" stop-color="#FFD801" stop-opacity="0.5244"/>
<stop offset="0.1822" stop-color="#FECA05" stop-opacity="0.4353"/>
<stop offset="0.2884" stop-color="#FEB20C" stop-opacity="0.3394"/>
<stop offset="0.3998" stop-color="#FD9115" stop-opacity="0.2388"/>
<stop offset="0.5154" stop-color="#FB6621" stop-opacity="0.1343"/>
<stop offset="0.6329" stop-color="#F9332F" stop-opacity="0.028164"/>
<stop offset="0.664" stop-color="#F92433" stop-opacity="0"/>
</radialGradient>
<radialGradient id="paint3_radial_1140_1003" cx="0" cy="0" r="1" gradientUnits="userSpaceOnUse" gradientTransform="translate(31.4305 32.7061) scale(82.7081 82.7081)">
<stop offset="0.1528" stop-color="#960E18"/>
<stop offset="0.2061" stop-color="#CC2335" stop-opacity="0.5541"/>
<stop offset="0.2495" stop-color="#F13148" stop-opacity="0.1914"/>
<stop offset="0.2724" stop-color="#FF3750" stop-opacity="0"/>
</radialGradient>
<radialGradient id="paint4_radial_1140_1003" cx="0" cy="0" r="1" gradientUnits="userSpaceOnUse" gradientTransform="translate(25.1717 31.6661) scale(82.7081 82.7081)">
<stop offset="0.1129" stop-color="#960E18"/>
<stop offset="0.1893" stop-color="#CC2335" stop-opacity="0.5541"/>
<stop offset="0.2515" stop-color="#F13148" stop-opacity="0.1914"/>
<stop offset="0.2843" stop-color="#FF3750" stop-opacity="0"/>
</radialGradient>
<linearGradient id="paint5_linear_1140_1003" x1="33.5629" y1="10.6655" x2="47.7145" y2="35.1767" gradientUnits="userSpaceOnUse">
<stop stop-color="#FFBC04"/>
<stop offset="0.2597" stop-color="#FFA202" stop-opacity="0.4886"/>
<stop offset="0.5078" stop-color="#FF8E00" stop-opacity="0"/>
</linearGradient>
<radialGradient id="paint6_radial_1140_1003" cx="0" cy="0" r="1" gradientUnits="userSpaceOnUse" gradientTransform="translate(47.8746 13.2463) scale(51.2474 51.2474)">
<stop stop-color="#FF980E"/>
<stop offset="0.295" stop-color="#FF7139"/>
<stop offset="0.4846" stop-color="#FF5B51"/>
<stop offset="0.626" stop-color="#FF4F5E"/>
<stop offset="0.7365" stop-color="#FF4055"/>
<stop offset="0.8428" stop-color="#FF3750"/>
</radialGradient>
<radialGradient id="paint7_radial_1140_1003" cx="0" cy="0" r="1" gradientUnits="userSpaceOnUse" gradientTransform="translate(47.8746 13.2463) scale(51.2474 51.2474)">
<stop offset="0.0840745" stop-color="#FFDE08"/>
<stop offset="0.2081" stop-color="#FFD609" stop-opacity="0.832"/>
<stop offset="0.4033" stop-color="#FFBF0B" stop-opacity="0.5677"/>
<stop offset="0.6437" stop-color="#FF9B0F" stop-opacity="0.242"/>
<stop offset="0.8224" stop-color="#FF7B12" stop-opacity="0"/>
</radialGradient>
<radialGradient id="paint8_radial_1140_1003" cx="0" cy="0" r="1" gradientUnits="userSpaceOnUse" gradientTransform="translate(36.0347 29.1912) rotate(75.6886) scale(25.134 26.2288)">
<stop offset="0.3634" stop-color="#FF3750"/>
<stop offset="0.4111" stop-color="#FF444B" stop-opacity="0.7895"/>
<stop offset="0.5902" stop-color="#FF7139" stop-opacity="0"/>
</radialGradient>
<radialGradient id="paint9_radial_1140_1003" cx="0" cy="0" r="1" gradientUnits="userSpaceOnUse" gradientTransform="translate(31.7443 31.3094) rotate(75.6886) scale(25.1047 25.1254)">
<stop offset="0.2159" stop-color="#FF3750" stop-opacity="0.8"/>
<stop offset="0.2702" stop-color="#FF444B" stop-opacity="0.6316"/>
<stop offset="0.4739" stop-color="#FF7139" stop-opacity="0"/>
</radialGradient>
<radialGradient id="paint10_radial_1140_1003" cx="0" cy="0" r="1" gradientUnits="userSpaceOnUse" gradientTransform="translate(58.1019 7.45724) scale(86.6175 86.6175)">
<stop offset="0.0535657" stop-color="#FFF44F"/>
<stop offset="0.4573" stop-color="#FF980E"/>
<stop offset="0.5211" stop-color="#FF8424"/>
<stop offset="0.5871" stop-color="#FF7634"/>
<stop offset="0.6393" stop-color="#FF7139"/>
</radialGradient>
<linearGradient id="paint11_linear_1140_1003" x1="41.4958" y1="10.2347" x2="16.9408" y2="52.7651" gradientUnits="userSpaceOnUse">
<stop stop-color="#FFF44F" stop-opacity="0.8"/>
<stop offset="0.75" stop-color="#FFF44F" stop-opacity="0"/>
</linearGradient>
<linearGradient id="paint12_linear_1140_1003" x1="33.678" y1="36.1895" x2="33.678" y2="6.30487" gradientUnits="userSpaceOnUse">
<stop stop-color="#3A8EE6"/>
<stop offset="0.2359" stop-color="#5C79F0"/>
<stop offset="0.6293" stop-color="#9059FF"/>
<stop offset="1" stop-color="#C139E6"/>
</linearGradient>
<linearGradient id="paint13_linear_1140_1003" x1="22.6806" y1="6.16786" x2="46.9297" y2="30.4169" gradientUnits="userSpaceOnUse">
<stop offset="0.8054" stop-color="#9059FF" stop-opacity="0"/>
<stop offset="1" stop-color="#6E008B" stop-opacity="0.5"/>
</linearGradient>
</defs>
</svg>
