<svg width="185" height="28" viewBox="0 0 185 28" fill="none" xmlns="http://www.w3.org/2000/svg">
<g clip-path="url(#clip0_1139_725)">
<path opacity="0.75" d="M0 0V28H28L0 0Z" fill="#1565C0"/>
<path d="M28 0H0V28L28 0Z" fill="#1976D2"/>
<path d="M129.907 5.60132C125.732 5.60132 122.066 8.98325 122.066 13.1578V22.3987H125.429V19.0366H134.385V22.3987H137.747V13.1578C137.747 8.98325 134.081 5.60132 129.907 5.60132ZM134.385 15.6811H125.429V13.1644C125.429 10.846 127.588 8.96343 129.907 8.96343C132.225 8.96343 134.385 10.846 134.385 13.1644V15.6811Z" fill="#FF5722"/>
<path d="M176.382 5.60132C172.207 5.60132 168.542 8.98325 168.542 13.1578V22.3987H171.904V19.0366H180.86V22.3987H184.223V13.1578C184.223 8.98325 180.557 5.60132 176.382 5.60132ZM180.86 15.6811H171.904V13.1644C171.904 10.846 174.064 8.96343 176.382 8.96343C178.701 8.96343 180.86 10.846 180.86 13.1644V15.6811Z" fill="#FF5722"/>
<path d="M95.7511 5.60132C91.1142 5.60132 87.3491 9.35975 87.3491 14.0033C87.3491 18.6402 91.1076 22.4053 95.7511 22.4053C100.388 22.4053 104.153 18.6468 104.153 14.0033C104.153 9.35975 100.388 5.60132 95.7511 5.60132ZM95.7511 19.0366C92.9703 19.0366 90.7112 16.7775 90.7112 13.9967C90.7112 11.2159 92.9703 8.95683 95.7511 8.95683C98.5319 8.95683 100.791 11.2159 100.791 13.9967C100.791 16.7841 98.5319 19.0366 95.7511 19.0366Z" fill="#1976D2"/>
<path d="M83.7886 13.1116C84.2048 12.3784 84.4426 11.5395 84.4426 10.6346C84.4426 7.85372 82.1835 5.5947 79.4027 5.5947H72.7974V22.3921H81.0871C83.8679 22.3921 86.1269 20.133 86.1269 17.3522C86.1203 15.5754 85.189 14.0099 83.7886 13.1116ZM76.1529 8.95681H79.4027C80.3274 8.95681 81.0804 9.70982 81.0804 10.6346C81.0804 11.5593 80.3274 12.3123 79.4027 12.3123H76.1529V8.95681ZM81.0804 19.0365H76.1529V15.6744H81.0804C82.0052 15.6744 82.7582 16.4274 82.7582 17.3522C82.7582 18.2769 82.0052 19.0365 81.0804 19.0365Z" fill="#1976D2"/>
<path d="M62.4337 5.60132C57.7968 5.60132 54.0317 9.35975 54.0317 14.0033C54.0317 18.6402 57.7902 22.4053 62.4337 22.4053C67.0773 22.4053 70.8357 18.6468 70.8357 14.0033C70.8357 9.35975 67.0707 5.60132 62.4337 5.60132ZM62.4337 19.0366C59.6529 19.0366 57.3938 16.7775 57.3938 13.9967C57.3938 11.2159 59.6529 8.95683 62.4337 8.95683C65.2146 8.95683 67.4736 11.2159 67.4736 13.9967C67.4736 16.7841 65.2146 19.0366 62.4337 19.0366Z" fill="#1976D2"/>
<path d="M148.369 12.352L148.389 12.3189H144.472C143.547 12.3189 142.794 11.5659 142.794 10.6412C142.794 9.71644 143.547 8.96343 144.472 8.96343H150.628L152.867 5.60132H144.465C141.684 5.60132 139.425 7.86034 139.425 10.6412C139.425 13.2437 141.394 15.3838 143.924 15.648L143.904 15.6811H147.821C148.745 15.6811 149.498 16.4341 149.498 17.3588C149.498 18.2836 148.745 19.0366 147.821 19.0366H141.664L139.425 22.3987H147.827C150.608 22.3987 152.867 20.1397 152.867 17.3588C152.867 14.7563 150.892 12.6162 148.369 12.352Z" fill="#FF5722"/>
<path d="M158.462 5.60132C155.681 5.60132 153.422 7.86034 153.422 10.6412C153.422 13.2437 155.391 15.3838 157.921 15.648L157.901 15.6811H161.818C162.742 15.6811 163.495 16.4341 163.495 17.3588C163.495 18.2836 162.742 19.0366 161.818 19.0366H155.662L153.422 22.3987H161.824C164.605 22.3987 166.864 20.1397 166.864 17.3588C166.864 14.7563 164.896 12.6162 162.366 12.352L162.386 12.3189H158.469C157.544 12.3189 156.791 11.5659 156.791 10.6412C156.791 9.71644 157.544 8.96343 158.469 8.96343H164.625L166.864 5.60132H158.462Z" fill="#FF5722"/>
<path d="M120.217 5.60132L113.348 12.9134L120.389 22.3921H116.472L111.115 15.2847L109.754 16.9096V22.3855H106.392V5.60132H109.754V12.2265L115.811 5.60132H120.217Z" fill="#FF5722"/>
<path d="M42.5579 22.3987H39.1958V5.60132H47.109C48.5225 5.60132 49.7379 6.08351 50.7617 7.05449C51.8054 8.03869 52.6178 9.48525 52.6377 10.9186C52.6509 12.2199 52.3404 13.2767 51.5147 14.2807C50.7287 15.2517 49.9295 15.9849 48.7141 16.2425L52.9151 22.3987H48.9981L45.0481 16.586C44.8896 16.368 44.6386 16.2425 44.3678 16.2425H42.5579V22.3987ZM42.5579 13.1578H47.0363C48.2715 13.1578 49.2755 12.1538 49.2755 10.9186C49.2755 9.68341 48.2715 8.6794 47.0363 8.6794H42.5579V13.1578Z" fill="#1976D2"/>
</g>
<defs>
<clipPath id="clip0_1139_725">
<rect width="184.223" height="28" fill="white"/>
</clipPath>
</defs>
</svg>
